PathFileType	4	(X/Y/Z)	c:/Users/goper/Files/vsCode/490R/osim_files/C07/C07_Slow_02.trc
DataRate	CameraRate	NumFrames	NumMarkers	Units                	OrigDataRate	OrigDataStartFrame	OrigNumFrames
250.00	250.00	8	36	mm	250.0	873	3491
                Frame#	Time	LPSIS			LASIS			LTH1			LTH2			LTH3			LTH4			LLFE			LMFE			LSH1			LSH2			LSH3			LSH4			LLMAL			LMMAL			LCAL			LMTP5			LTOE			LMTP1			RPSIS			RASIS			RTH1			RTH2			RTH3			RTH4			RLFE			RMFE			RSH1			RSH2			RSH3			RSH4			RLMAL			RMMAL			RCAL			RMTP1			RTOE			RMTP5		
		X1	Y1	Z1	X2	Y2	Z2	X3	Y3	Z3	X4	Y4	Z4	X5	Y5	Z5	X6	Y6	Z6	X7	Y7	Z7	X8	Y8	Z8	X9	Y9	Z9	X10	Y10	Z10	X11	Y11	Z11	X12	Y12	Z12	X13	Y13	Z13	X14	Y14	Z14	X15	Y15	Z15	X16	Y16	Z16	X17	Y17	Z17	X18	Y18	Z18	X19	Y19	Z19	X20	Y20	Z20	X21	Y21	Z21	X22	Y22	Z22	X23	Y23	Z23	X24	Y24	Z24	X25	Y25	Z25	X26	Y26	Z26	X27	Y27	Z27	X28	Y28	Z28	X29	Y29	Z29	X30	Y30	Z30	X31	Y31	Z31	X32	Y32	Z32	X33	Y33	Z33	X34	Y34	Z34	X35	Y35	Z35	X36	Y36	Z36

873	3.48800	0.00000	0.00000	0.00000	0.00000	0.00000	0.00000	0.00000	0.00000	0.00000	0.00000	0.00000	0.00000	0.00000	0.00000	0.00000	0.00000	0.00000	0.00000	0.00000	0.00000	0.00000	1315.77820	511.67352	346.80338	0.00000	0.00000	0.00000	0.00000	0.00000	0.00000	0.00000	0.00000	0.00000	0.00000	0.00000	0.00000	0.00000	0.00000	0.00000	1287.95056	137.80678	331.19440	0.00000	0.00000	0.00000	1186.33362	45.48066	423.33472	1128.51514	62.49784	372.58060	1157.52612	51.82101	319.60571	0.00000	0.00000	0.00000	0.00000	0.00000	0.00000	1309.81592	832.99396	148.95842	1290.51221	756.61798	144.30663	0.00000	0.00000	0.00000	1220.55383	772.00183	172.44426	1258.60303	507.26422	170.96361	0.00000	0.00000	0.00000	0.00000	0.00000	0.00000	0.00000	0.00000	0.00000	0.00000	0.00000	0.00000	0.00000	0.00000	0.00000	0.00000	0.00000	0.00000	0.00000	0.00000	0.00000	0.00000	0.00000	0.00000	0.00000	0.00000	0.00000	0.00000	0.00000	0.00000	0.00000	0.00000	0.00000
874	3.49200	0.00000	0.00000	0.00000	0.00000	0.00000	0.00000	0.00000	0.00000	0.00000	0.00000	0.00000	0.00000	0.00000	0.00000	0.00000	0.00000	0.00000	0.00000	0.00000	0.00000	0.00000	1313.93298	511.81360	346.69785	0.00000	0.00000	0.00000	0.00000	0.00000	0.00000	0.00000	0.00000	0.00000	0.00000	0.00000	0.00000	0.00000	0.00000	0.00000	1287.63196	137.89497	330.96375	0.00000	0.00000	0.00000	1186.24768	45.51698	423.30069	1128.41382	62.36655	372.42938	1157.38574	51.68300	319.48703	0.00000	0.00000	0.00000	0.00000	0.00000	0.00000	1304.85742	833.61517	149.15218	1284.85876	757.36127	144.52687	0.00000	0.00000	0.00000	1215.14563	773.22632	172.98944	1250.93518	508.75208	171.09506	0.00000	0.00000	0.00000	0.00000	0.00000	0.00000	0.00000	0.00000	0.00000	0.00000	0.00000	0.00000	0.00000	0.00000	0.00000	0.00000	0.00000	0.00000	0.00000	0.00000	0.00000	0.00000	0.00000	0.00000	0.00000	0.00000	0.00000	0.00000	0.00000	0.00000	0.00000	0.00000	0.00000
875	3.49600	0.00000	0.00000	0.00000	0.00000	0.00000	0.00000	0.00000	0.00000	0.00000	0.00000	0.00000	0.00000	0.00000	0.00000	0.00000	0.00000	0.00000	0.00000	0.00000	0.00000	0.00000	1313.22729	512.05054	345.96951	1287.25574	341.14886	461.70938	0.00000	0.00000	0.00000	0.00000	0.00000	0.00000	0.00000	0.00000	0.00000	0.00000	0.00000	0.00000	1287.39636	137.92996	330.82956	0.00000	0.00000	0.00000	1186.12598	45.55859	423.28397	1128.44360	62.13836	372.31586	1157.23254	51.47590	319.34988	0.00000	0.00000	0.00000	0.00000	0.00000	0.00000	1299.88708	834.21936	149.34517	1279.19189	758.07208	144.77692	0.00000	0.00000	0.00000	1210.01648	774.51141	173.56433	1243.14526	509.84747	171.49707	0.00000	0.00000	0.00000	0.00000	0.00000	0.00000	0.00000	0.00000	0.00000	0.00000	0.00000	0.00000	0.00000	0.00000	0.00000	0.00000	0.00000	0.00000	0.00000	0.00000	0.00000	0.00000	0.00000	0.00000	0.00000	0.00000	0.00000	0.00000	0.00000	0.00000	0.00000	0.00000	0.00000
876	3.50000	0.00000	0.00000	0.00000	0.00000	0.00000	0.00000	0.00000	0.00000	0.00000	0.00000	0.00000	0.00000	0.00000	0.00000	0.00000	0.00000	0.00000	0.00000	0.00000	0.00000	0.00000	1310.38379	512.29938	346.41693	1285.76843	341.43863	461.33417	0.00000	0.00000	0.00000	0.00000	0.00000	0.00000	0.00000	0.00000	0.00000	0.00000	0.00000	0.00000	1287.17957	137.97105	330.62137	0.00000	0.00000	0.00000	1185.95471	45.53216	423.19647	1128.35547	61.93718	372.30072	1157.14001	51.26949	319.31696	0.00000	0.00000	0.00000	0.00000	0.00000	0.00000	1294.79041	834.81549	149.57478	1273.59253	758.89099	145.01501	0.00000	0.00000	0.00000	1204.70349	775.70166	174.13507	1235.46545	511.12259	171.75148	1227.79370	517.95953	289.06808	0.00000	0.00000	0.00000	0.00000	0.00000	0.00000	0.00000	0.00000	0.00000	0.00000	0.00000	0.00000	0.00000	0.00000	0.00000	0.00000	0.00000	0.00000	0.00000	0.00000	0.00000	0.00000	0.00000	0.00000	0.00000	0.00000	0.00000	0.00000	0.00000	0.00000
877	3.50400	0.00000	0.00000	0.00000	0.00000	0.00000	0.00000	0.00000	0.00000	0.00000	0.00000	0.00000	0.00000	0.00000	0.00000	0.00000	0.00000	0.00000	0.00000	0.00000	0.00000	0.00000	1308.24524	512.48175	346.40881	1284.99072	341.36981	461.56955	0.00000	0.00000	0.00000	0.00000	0.00000	0.00000	0.00000	0.00000	0.00000	0.00000	0.00000	0.00000	1286.93762	138.05746	330.49088	0.00000	0.00000	0.00000	1185.92505	45.51352	423.19421	1128.34021	61.73265	372.33801	1157.07532	51.05594	319.29510	0.00000	0.00000	0.00000	0.00000	0.00000	0.00000	1289.76855	835.48779	149.76054	1267.92334	759.68213	145.24345	0.00000	0.00000	0.00000	1199.00867	777.01318	174.36673	1227.90967	512.50287	172.05670	1222.05078	518.89856	289.27356	0.00000	0.00000	0.00000	0.00000	0.00000	0.00000	0.00000	0.00000	0.00000	0.00000	0.00000	0.00000	0.00000	0.00000	0.00000	0.00000	0.00000	0.00000	0.00000	0.00000	0.00000	1360.39893	193.23744	179.20816	0.00000	0.00000	0.00000	0.00000	0.00000	0.00000
878	3.50800	0.00000	0.00000	0.00000	1506.92297	105.84060	228.35080	1350.84766	980.46667	459.52032	0.00000	0.00000	0.00000	0.00000	0.00000	0.00000	0.00000	0.00000	0.00000	0.00000	0.00000	0.00000	1306.25635	512.65564	346.30588	1283.57983	341.60257	461.21143	0.00000	0.00000	0.00000	0.00000	0.00000	0.00000	0.00000	0.00000	0.00000	0.00000	0.00000	0.00000	1286.75305	138.09222	330.32947	0.00000	0.00000	0.00000	1185.90369	45.48829	423.21881	1128.29163	61.48325	372.26816	1157.00732	50.80325	319.22678	0.00000	0.00000	0.00000	1611.59448	309.78537	257.28128	1284.76196	836.14062	149.91917	1262.37207	760.58295	145.37677	0.00000	0.00000	0.00000	1193.15820	778.42914	174.66139	1220.51953	513.73767	172.30858	1214.04956	520.46643	289.58963	0.00000	0.00000	0.00000	1288.17517	651.20673	493.11331	0.00000	0.00000	0.00000	0.00000	0.00000	0.00000	0.00000	0.00000	0.00000	0.00000	0.00000	0.00000	1262.21179	341.02597	281.93802	1359.89673	191.51128	178.71175	0.00000	0.00000	0.00000	1340.36169	170.82155	283.70789
879	3.51200	1346.97961	980.64874	459.83572	0.00000	0.00000	0.00000	0.00000	0.00000	0.00000	0.00000	0.00000	0.00000	1253.76416	341.35831	282.43848	0.00000	0.00000	0.00000	1304.71631	525.39972	468.06119	1304.29797	512.85516	346.20706	1282.52771	341.64606	461.15759	0.00000	0.00000	0.00000	0.00000	0.00000	0.00000	0.00000	0.00000	0.00000	0.00000	0.00000	0.00000	0.00000	0.00000	0.00000	0.00000	0.00000	0.00000	1185.89563	45.43797	423.23892	1128.20264	61.22343	372.22504	1156.99402	50.55489	319.18176	0.00000	0.00000	0.00000	0.00000	0.00000	0.00000	1279.78113	836.80646	150.09627	1256.73108	761.33759	145.69327	1235.58862	682.25690	149.22575	1187.26904	779.76898	175.09294	1213.14844	514.95581	172.61398	1207.01611	521.80823	290.02954	0.00000	0.00000	0.00000	0.00000	0.00000	0.00000	1334.02905	394.72318	162.82089	0.00000	0.00000	0.00000	0.00000	0.00000	0.00000	1285.86902	181.53166	281.91663	0.00000	0.00000	0.00000	0.00000	0.00000	0.00000	1603.59473	308.22131	256.92618	0.00000	0.00000	0.00000
880	3.51600	0.00000	0.00000	0.00000	0.00000	0.00000	0.00000	1342.98767	980.68884	460.25900	0.00000	0.00000	0.00000	0.00000	0.00000	0.00000	0.00000	0.00000	0.00000	1302.78918	525.42694	467.92667	1302.27759	513.02179	346.09665	1281.76746	341.57153	461.42099	0.00000	0.00000	0.00000	0.00000	0.00000	0.00000	0.00000	0.00000	0.00000	1314.65942	109.80212	396.99100	0.00000	0.00000	0.00000	1367.19067	52.98375	343.45386	1185.86829	45.40963	423.30652	1128.14136	60.96294	372.14685	1156.91504	50.32735	319.17691	0.00000	0.00000	0.00000	1384.36890	417.94147	124.51020	1274.75415	837.46991	150.32880	1251.15320	762.17926	145.91705	1229.49353	683.24011	149.43079	1181.72375	781.17114	175.44122	1205.88672	516.29456	172.90839	0.00000	0.00000	0.00000	0.00000	0.00000	0.00000	0.00000	0.00000	0.00000	1325.18079	394.29749	163.96213	1359.78333	366.46927	167.22594	0.00000	0.00000	0.00000	1284.96094	179.77583	281.09637	0.00000	0.00000	0.00000	0.00000	0.00000	0.00000	0.00000	0.00000	0.00000	1525.92773	137.27887	169.94287
